<?xml version="1.0" encoding="UTF-8" standalone="no"?>
<svg
   xmlns:dc="http://purl.org/dc/elements/1.1/"
   xmlns:cc="http://creativecommons.org/ns#"
   xmlns:rdf="http://www.w3.org/1999/02/22-rdf-syntax-ns#"
   xmlns:svg="http://www.w3.org/2000/svg"
   xmlns="http://www.w3.org/2000/svg"
   xmlns:sodipodi="http://sodipodi.sourceforge.net/DTD/sodipodi-0.dtd"
   xmlns:inkscape="http://www.inkscape.org/namespaces/inkscape"
   sodipodi:docname="scroll1.svg"
   inkscape:version="1.0 (4035a4fb49, 2020-05-01)"
   id="svg8"
   version="1.1"
   viewBox="0 0 210 297"
   height="297mm"
   width="210mm">
  <defs
     id="defs2" />
  <sodipodi:namedview
     inkscape:window-maximized="1"
     inkscape:window-y="-9"
     inkscape:window-x="-9"
     inkscape:window-height="1001"
     inkscape:window-width="1920"
     showgrid="false"
     inkscape:document-rotation="0"
     inkscape:current-layer="layer1"
     inkscape:document-units="mm"
     inkscape:cy="560"
     inkscape:cx="400"
     inkscape:zoom="0.35"
     inkscape:pageshadow="2"
     inkscape:pageopacity="0.0"
     borderopacity="1.0"
     bordercolor="#666666"
     pagecolor="#ffffff"
     id="base" />
  <metadata
     id="metadata5">
    <rdf:RDF>
      <cc:Work
         rdf:about="">
        <dc:format>image/svg+xml</dc:format>
        <dc:type
           rdf:resource="http://purl.org/dc/dcmitype/StillImage" />
        <dc:title></dc:title>
      </cc:Work>
    </rdf:RDF>
  </metadata>
  <g
     id="layer1"
     inkscape:groupmode="layer"
     inkscape:label="Layer 1">
    <path
       id="path24"
       d="m 89.39992,176.65389 c -3.04287,-3.64586 -3.44261,-4.44955 -2.67101,-5.3702 0.74801,-0.89252 1.4137,-0.47733 3.83392,2.39116 l 2.41931,2.86741 2.41932,-2.86741 c 1.33062,-1.57707 2.64779,-2.86741 2.92704,-2.86741 0.65706,0 1.30603,0.78286 1.30603,1.57549 0,0.7944 -5.99915,7.94951 -6.6652,7.94951 -0.27459,0 -1.88082,-1.65535 -3.56941,-3.67855 z m 0,-8.73125 c -3.04287,-3.64586 -3.44261,-4.44955 -2.67101,-5.3702 0.74801,-0.89252 1.4137,-0.47733 3.83392,2.39116 l 2.41931,2.86741 2.41932,-2.86741 c 1.33062,-1.57707 2.64779,-2.86741 2.92704,-2.86741 0.65706,0 1.30603,0.78286 1.30603,1.57549 0,0.7944 -5.99915,7.94951 -6.6652,7.94951 -0.27459,0 -1.88082,-1.65535 -3.56941,-3.67855 z m 0.56515,-10.33267 c -3.4587,-1.17007 -6.32891,-4.13158 -7.9144,-8.16615 l -0.8765,-2.23044 V 136.67619 126.159 l 0.8849,-2.25232 c 1.23893,-3.15343 3.28279,-5.64434 5.88602,-7.17349 1.95783,-1.15003 2.50373,-1.28981 5.03705,-1.28981 2.53333,0 3.07923,0.13978 5.03706,1.28981 2.60323,1.52915 4.64709,4.02006 5.88602,7.17349 l 0.8849,2.25232 v 10.52554 10.52553 l -1.08099,2.61999 c -1.97213,4.77986 -5.64392,7.76408 -9.96514,8.09911 -1.31095,0.10164 -2.89652,-0.0407 -3.77892,-0.3392 z m 6.19803,-3.32281 c 2.198,-0.89361 4.82588,-4.02915 5.57481,-6.65176 0.45708,-1.60061 0.55757,-3.57205 0.55757,-10.93921 0,-10.72198 -0.20364,-11.80412 -2.80557,-14.9087 -3.78195,-4.51254 -9.23359,-4.51254 -13.01553,0 -2.60193,3.10458 -2.80557,4.18672 -2.80557,14.9087 0,10.72719 0.20283,11.80315 2.81179,14.91611 2.66065,3.17465 6.10962,4.12745 9.6825,2.67486 z M 92.01046,131.356 c -0.24276,-0.34901 -0.35135,-1.70707 -0.2902,-3.62938 0.0767,-2.4099 0.22313,-3.16575 0.6798,-3.50825 0.42333,-0.31749 0.74084,-0.31749 1.16417,0 0.45667,0.3425 0.60313,1.09835 0.67979,3.50825 0.10198,3.20572 -0.19377,4.18707 -1.26188,4.18707 -0.32108,0 -0.75834,-0.25096 -0.97168,-0.55769 z"
       style="fill:#000000;stroke-width:0.363329" />
  </g>
</svg>
